<svg xmlns="http://www.w3.org/2000/svg" xmlns:xlink="http://www.w3.org/1999/xlink" width="195" zoomAndPan="magnify" viewBox="0 0 146.25 41.25" height="55" preserveAspectRatio="xMidYMid meet" version="1.0"><defs><g/><clipPath id="91550abe9d"><path d="M 6 2.753906 L 28 2.753906 L 28 31 L 6 31 Z M 6 2.753906 " clip-rule="nonzero"/></clipPath><clipPath id="97c98a09ac"><path d="M 3.679688 21 L 38.300781 21 L 38.300781 38 L 3.679688 38 Z M 3.679688 21 " clip-rule="nonzero"/></clipPath><clipPath id="b973834b03"><path d="M 57 10.320312 L 64.367188 10.320312 L 64.367188 13 L 57 13 Z M 57 10.320312 " clip-rule="nonzero"/></clipPath></defs><g clip-path="url(#91550abe9d)"><path fill="#ff914d" d="M 6.933594 30.664062 L 17.253906 7.535156 L 19.386719 2.753906 L 21.523438 7.535156 L 27.148438 20.148438 C 25.539062 20.382812 23.976562 20.703125 22.460938 21.113281 L 19.386719 14.230469 L 14.9375 24.214844 C 12.042969 25.859375 9.375 27.996094 6.933594 30.664062 Z M 6.933594 30.664062 " fill-opacity="1" fill-rule="nonzero"/></g><g clip-path="url(#97c98a09ac)"><path fill="#5271ff" d="M 3.6875 37.753906 C 11.222656 25.746094 21.863281 20.328125 38.351562 21.539062 C 34.871094 21.980469 31.652344 22.707031 28.722656 23.664062 L 35.011719 37.75 L 29.886719 37.75 L 24.359375 25.375 C 17.945312 28.320312 13.355469 32.613281 11.023438 37.75 L 3.6875 37.75 Z M 3.6875 37.753906 " fill-opacity="1" fill-rule="evenodd"/></g><g fill="#050a30" fill-opacity="1"><g transform="translate(38.194926, 31.649484)"><g><path d="M 11.28125 0 L 10.515625 -2.9375 L 5.4375 -2.9375 L 4.640625 0 L 0 0 L 5.109375 -15.703125 L 10.734375 -15.703125 L 15.90625 0 Z M 9.640625 -6.390625 L 8.96875 -8.96875 C 8.8125 -9.53125 8.617188 -10.265625 8.390625 -11.171875 C 8.160156 -12.078125 8.015625 -12.726562 7.953125 -13.125 C 7.878906 -12.757812 7.75 -12.160156 7.5625 -11.328125 C 7.375 -10.492188 6.957031 -8.847656 6.3125 -6.390625 Z M 9.640625 -6.390625 "/></g></g></g><g fill="#050a30" fill-opacity="1"><g transform="translate(56.485549, 31.649484)"><g><path d="M 1.6875 0 L 1.6875 -15.640625 L 5.9375 -15.640625 L 5.9375 0 Z M 1.6875 0 "/></g></g></g><g fill="#050a30" fill-opacity="1"><g transform="translate(66.498868, 31.649484)"><g><path d="M 8.65625 -12.390625 C 7.644531 -12.390625 6.859375 -11.976562 6.296875 -11.15625 C 5.734375 -10.332031 5.453125 -9.195312 5.453125 -7.75 C 5.453125 -4.738281 6.597656 -3.234375 8.890625 -3.234375 C 9.578125 -3.234375 10.242188 -3.328125 10.890625 -3.515625 C 11.546875 -3.710938 12.203125 -3.945312 12.859375 -4.21875 L 12.859375 -0.65625 C 11.554688 -0.0703125 10.078125 0.21875 8.421875 0.21875 C 6.066406 0.21875 4.257812 -0.460938 3 -1.828125 C 1.738281 -3.203125 1.109375 -5.1875 1.109375 -7.78125 C 1.109375 -9.394531 1.410156 -10.816406 2.015625 -12.046875 C 2.628906 -13.273438 3.507812 -14.21875 4.65625 -14.875 C 5.800781 -15.53125 7.148438 -15.859375 8.703125 -15.859375 C 10.390625 -15.859375 12.003906 -15.492188 13.546875 -14.765625 L 12.25 -11.4375 C 11.664062 -11.707031 11.082031 -11.929688 10.5 -12.109375 C 9.925781 -12.296875 9.3125 -12.390625 8.65625 -12.390625 Z M 8.65625 -12.390625 "/></g></g></g><g fill="#050a30" fill-opacity="1"><g transform="translate(83.099809, 31.649484)"><g><path d="M 1.6875 0 L 1.6875 -15.640625 L 5.921875 -15.640625 L 5.921875 -3.40625 L 11.9375 -3.40625 L 11.9375 0 Z M 1.6875 0 "/></g></g></g><g fill="#050a30" fill-opacity="1"><g transform="translate(98.235641, 31.649484)"><g><path d="M 10.96875 0 L 1.6875 0 L 1.6875 -15.640625 L 10.96875 -15.640625 L 10.96875 -12.25 L 5.921875 -12.25 L 5.921875 -9.78125 L 10.59375 -9.78125 L 10.59375 -6.390625 L 5.921875 -6.390625 L 5.921875 -3.4375 L 10.96875 -3.4375 Z M 10.96875 0 "/></g></g></g><g fill="#050a30" fill-opacity="1"><g transform="translate(112.644269, 31.649484)"><g><path d="M 15.78125 0 L 10.890625 0 L 7.84375 -4.890625 L 4.828125 0 L 0.046875 0 L 5.234375 -8 L 0.359375 -15.640625 L 5.03125 -15.640625 L 7.859375 -10.796875 L 10.578125 -15.640625 L 15.40625 -15.640625 L 10.453125 -7.671875 Z M 15.78125 0 "/></g></g></g><path fill="#050a30" d="M 58.488281 13.261719 C 59.050781 12.714844 59.726562 12.421875 60.519531 12.421875 C 61.308594 12.421875 61.984375 12.714844 62.542969 13.261719 C 62.710938 13.09375 62.875 12.929688 63.039062 12.769531 C 61.625 11.339844 59.324219 11.402344 57.996094 12.769531 C 58.160156 12.933594 58.320312 13.097656 58.488281 13.261719 Z M 59.472656 14.257812 C 59.765625 13.972656 60.109375 13.820312 60.515625 13.820312 C 60.921875 13.820312 61.269531 13.972656 61.554688 14.25 C 61.722656 14.082031 61.886719 13.917969 62.046875 13.753906 C 61.15625 12.859375 59.757812 12.953125 58.980469 13.761719 C 58.984375 13.765625 58.984375 13.769531 58.988281 13.773438 C 59.148438 13.933594 59.308594 14.09375 59.472656 14.257812 Z M 61.082031 15.304688 C 61.082031 14.992188 60.832031 14.742188 60.519531 14.742188 C 60.210938 14.742188 59.960938 14.992188 59.957031 15.300781 C 59.957031 15.613281 60.207031 15.867188 60.519531 15.867188 C 60.832031 15.867188 61.082031 15.617188 61.082031 15.304688 Z M 61.082031 15.304688 " fill-opacity="1" fill-rule="nonzero"/><g clip-path="url(#b973834b03)"><path fill="#050a30" d="M 64.03125 11.792969 C 64.023438 11.800781 64.011719 11.804688 64.003906 11.8125 C 63.859375 11.960938 63.714844 12.105469 63.570312 12.25 C 63.558594 12.257812 63.554688 12.269531 63.546875 12.28125 C 62.695312 11.460938 61.695312 11.023438 60.515625 11.023438 C 59.339844 11.023438 58.339844 11.460938 57.496094 12.277344 C 57.484375 12.269531 57.476562 12.261719 57.46875 12.253906 C 57.324219 12.105469 57.175781 11.960938 57.03125 11.8125 C 57.023438 11.804688 57.011719 11.800781 57 11.792969 C 57 11.785156 57 11.78125 57 11.777344 C 57.011719 11.769531 57.019531 11.765625 57.027344 11.757812 C 57.203125 11.582031 57.390625 11.421875 57.589844 11.277344 C 58.117188 10.894531 58.695312 10.621094 59.328125 10.464844 C 59.605469 10.394531 59.886719 10.351562 60.167969 10.332031 C 60.226562 10.332031 60.28125 10.324219 60.335938 10.320312 C 60.457031 10.320312 60.578125 10.320312 60.695312 10.320312 C 60.703125 10.320312 60.710938 10.324219 60.71875 10.324219 C 60.863281 10.335938 61.011719 10.347656 61.15625 10.363281 C 61.449219 10.394531 61.738281 10.460938 62.019531 10.554688 C 62.757812 10.789062 63.40625 11.179688 63.964844 11.71875 C 63.988281 11.738281 64.011719 11.757812 64.03125 11.777344 C 64.03125 11.78125 64.03125 11.785156 64.03125 11.792969 Z M 64.03125 11.792969 " fill-opacity="1" fill-rule="nonzero"/></g><path fill="#050a30" d="M 58.488281 13.261719 C 58.320312 13.097656 58.160156 12.933594 57.996094 12.769531 C 59.324219 11.402344 61.625 11.339844 63.039062 12.769531 C 62.875 12.929688 62.710938 13.09375 62.542969 13.261719 C 61.984375 12.714844 61.308594 12.421875 60.519531 12.421875 C 59.726562 12.421875 59.050781 12.714844 58.488281 13.261719 Z M 58.488281 13.261719 " fill-opacity="1" fill-rule="nonzero"/><path fill="#050a30" d="M 59.472656 14.257812 C 59.308594 14.09375 59.148438 13.933594 58.988281 13.773438 C 58.984375 13.769531 58.984375 13.765625 58.980469 13.761719 C 59.757812 12.953125 61.15625 12.859375 62.046875 13.753906 C 61.886719 13.917969 61.722656 14.082031 61.554688 14.25 C 61.269531 13.972656 60.921875 13.820312 60.515625 13.820312 C 60.109375 13.820312 59.765625 13.972656 59.472656 14.257812 Z M 59.472656 14.257812 " fill-opacity="1" fill-rule="nonzero"/><path fill="#050a30" d="M 61.082031 15.304688 C 61.082031 15.617188 60.832031 15.867188 60.519531 15.867188 C 60.207031 15.867188 59.957031 15.613281 59.957031 15.300781 C 59.960938 14.992188 60.210938 14.742188 60.519531 14.742188 C 60.832031 14.742188 61.082031 14.992188 61.082031 15.304688 Z M 61.082031 15.304688 " fill-opacity="1" fill-rule="nonzero"/></svg>